<svg width="13" height="18" viewBox="0 0 13 18" fill="none" xmlns="http://www.w3.org/2000/svg">
<path d="M10.5625 10.375H2.6875C1.17578 10.375 0.402344 12.2031 1.49219 13.2578L5.42969 17.1953C6.0625 17.8633 7.15234 17.8633 7.82031 17.1953L11.7578 13.2578C12.8125 12.2031 12.0391 10.375 10.5625 10.375ZM6.625 16L2.6875 12.0625H10.5625L6.625 16ZM2.6875 8.125H10.5273C12.0391 8.125 12.8125 6.33203 11.7227 5.27734L7.78516 1.33984C7.15234 0.671875 6.0625 0.671875 5.42969 1.33984L1.49219 5.27734C0.4375 6.33203 1.17578 8.125 2.6875 8.125ZM6.625 2.5L10.5625 6.4375H2.6875L6.625 2.5Z" fill="#747474"/>
</svg>
