<svg width="187" height="159" viewBox="0 0 187 159" fill="none" xmlns="http://www.w3.org/2000/svg">
<mask id="path-1-inside-1_757_14816" fill="white">
<path d="M172.908 79.0755C172.908 122.748 134.202 158.151 86.4542 158.151C38.7069 158.151 0 122.748 0 79.0755C0 35.4033 38.7069 0 86.4542 0C134.202 0 172.908 35.4033 172.908 79.0755ZM25.6793 79.0755C25.6793 109.776 52.8892 134.663 86.4542 134.663C120.019 134.663 147.229 109.776 147.229 79.0755C147.229 48.3752 120.019 23.4876 86.4542 23.4876C52.8892 23.4876 25.6793 48.3752 25.6793 79.0755Z"/>
</mask>
<path d="M172.908 79.0755C172.908 122.748 134.202 158.151 86.4542 158.151C38.7069 158.151 0 122.748 0 79.0755C0 35.4033 38.7069 0 86.4542 0C134.202 0 172.908 35.4033 172.908 79.0755ZM25.6793 79.0755C25.6793 109.776 52.8892 134.663 86.4542 134.663C120.019 134.663 147.229 109.776 147.229 79.0755C147.229 48.3752 120.019 23.4876 86.4542 23.4876C52.8892 23.4876 25.6793 48.3752 25.6793 79.0755Z" stroke="#F5F5F5" stroke-width="10" mask="url(#path-1-inside-1_757_14816)"/>
<path d="M86.4541 6.10352e-05C99.1295 6.11734e-05 111.65 2.54939 123.128 7.46746C134.607 12.3855 144.763 19.552 152.876 28.4593C160.99 37.3666 166.863 47.7967 170.079 59.0109C173.295 70.2251 173.776 81.949 171.488 93.3521L137.474 87.6415C138.847 80.7996 138.559 73.7653 136.629 67.0368C134.699 60.3083 131.175 54.0502 126.307 48.7058C121.439 43.3614 115.346 39.0615 108.459 36.1107C101.572 33.1599 94.0594 31.6303 86.4541 31.6303V6.10352e-05Z" fill="#886CC0"/>
<path d="M186.785 95.6311C182.349 118.121 169.038 138.338 149.38 152.444L112.663 109.633C120.85 103.759 126.394 95.3381 128.242 85.9709L186.785 95.6311Z" fill="#26E023"/>
<path d="M148.202 111.089H141.962V113.849C142.229 113.556 142.602 113.316 143.082 113.129C143.562 112.943 144.082 112.849 144.642 112.849C145.642 112.849 146.469 113.076 147.122 113.529C147.789 113.983 148.275 114.569 148.582 115.289C148.889 116.009 149.042 116.789 149.042 117.629C149.042 119.189 148.602 120.429 147.722 121.349C146.842 122.256 145.602 122.709 144.002 122.709C142.935 122.709 142.009 122.529 141.222 122.169C140.435 121.796 139.829 121.283 139.402 120.629C138.975 119.976 138.742 119.223 138.702 118.369H142.042C142.122 118.783 142.315 119.129 142.622 119.409C142.929 119.676 143.349 119.809 143.882 119.809C144.509 119.809 144.975 119.609 145.282 119.209C145.589 118.809 145.742 118.276 145.742 117.609C145.742 116.956 145.582 116.456 145.262 116.109C144.942 115.763 144.475 115.589 143.862 115.589C143.409 115.589 143.035 115.703 142.742 115.929C142.449 116.143 142.255 116.429 142.162 116.789H138.862V108.089H148.202V111.089ZM150.57 111.289V108.109H156.11V122.709H152.55V111.289H150.57Z" fill="white"/>
<path d="M139.797 141.305C123.814 152.766 103.929 158.716 83.6306 158.109C63.3317 157.502 43.9144 150.378 28.7837 137.987L51.8519 114.422C60.9304 121.857 72.5808 126.131 84.7601 126.496C96.9394 126.86 108.87 123.29 118.46 116.413L139.797 141.305Z" fill="#61CFF1"/>
<path d="M28.908 138.088C18.1379 129.302 9.94384 118.19 5.07301 105.764C0.202186 93.339 -1.19045 79.9961 1.0221 66.9522L35.1949 71.8015C33.8674 79.6278 34.703 87.6336 37.6255 95.0888C40.548 102.544 45.4644 109.211 51.9265 114.483L28.908 138.088Z" fill="#FFDA7C"/>
<path d="M1.01514 66.9923C4.16579 48.3549 14.4951 31.3611 30.1396 19.0768C45.784 6.79254 65.7134 0.0267489 86.332 0.00012207L86.3808 31.6303C74.0096 31.6463 62.052 35.7057 52.6654 43.0763C43.2787 50.4468 37.0811 60.6431 35.1907 71.8256L1.01514 66.9923Z" fill="#FF86B1"/>
</svg>
