<svg width="22" height="22" viewBox="0 0 22 22" fill="none" xmlns="http://www.w3.org/2000/svg">
<path d="M16.6124 10.1464L16.6117 11.594L17.9658 11.0824C18.1814 11.0009 18.4238 10.957 18.7033 10.9571C20.0238 10.9578 21 11.9628 20.9994 13.1046C20.9988 14.2452 20.0227 15.2447 18.7069 15.244C18.4378 15.2439 18.1891 15.1975 17.956 15.113L16.616 14.6271L16.6152 16.0526L16.6129 20.5053L1.00032 20.4971L1.00211 17.0674C1.38338 17.1763 1.78631 17.2352 2.20213 17.2354C4.52847 17.2366 6.49442 15.4284 6.49564 13.097C6.49685 10.7656 4.53278 8.95536 2.20644 8.95415C1.79063 8.95394 1.38763 9.01237 1.00625 9.12089L1.00804 5.68556L5.70484 5.68801L7.14516 5.68876L6.64248 4.33901C6.56151 4.12157 6.51804 3.8873 6.51817 3.63596C6.51876 2.49644 7.49948 1.49584 8.81064 1.49653C10.1218 1.49721 11.1015 2.49883 11.1009 3.63835C11.1008 3.89262 11.056 4.13015 10.9778 4.33599L10.4631 5.69049L11.9121 5.69124L16.6147 5.69369L16.6124 10.1464Z" stroke="#FFFEFE" stroke-width="2"/>
</svg>
