<svg width="19" height="22" viewBox="0 0 19 22" fill="none" xmlns="http://www.w3.org/2000/svg">
<path d="M9.5 13.2C9.68789 13.2 9.87156 13.1355 10.0278 13.0146C10.184 12.8937 10.3058 12.722 10.3777 12.521C10.4496 12.32 10.4684 12.0988 10.4317 11.8854C10.3951 11.672 10.3046 11.476 10.1718 11.3222C10.0389 11.1683 9.86962 11.0636 9.68534 11.0211C9.50105 10.9787 9.31004 11.0005 9.13645 11.0837C8.96286 11.167 8.81449 11.308 8.7101 11.4889C8.60572 11.6698 8.55 11.8824 8.55 12.1C8.55 12.3917 8.65009 12.6715 8.82825 12.8778C9.00641 13.0841 9.24804 13.2 9.5 13.2ZM14.25 13.2C14.4379 13.2 14.6216 13.1355 14.7778 13.0146C14.934 12.8937 15.0558 12.722 15.1277 12.521C15.1996 12.32 15.2184 12.0988 15.1817 11.8854C15.1451 11.672 15.0546 11.476 14.9218 11.3222C14.7889 11.1683 14.6196 11.0636 14.4353 11.0211C14.2511 10.9787 14.06 11.0005 13.8865 11.0837C13.7129 11.167 13.5645 11.308 13.4601 11.4889C13.3557 11.6698 13.3 11.8824 13.3 12.1C13.3 12.3917 13.4001 12.6715 13.5782 12.8778C13.7564 13.0841 13.998 13.2 14.25 13.2ZM9.5 17.6C9.68789 17.6 9.87156 17.5355 10.0278 17.4146C10.184 17.2937 10.3058 17.122 10.3777 16.921C10.4496 16.72 10.4684 16.4988 10.4317 16.2854C10.3951 16.072 10.3046 15.876 10.1718 15.7222C10.0389 15.5683 9.86962 15.4636 9.68534 15.4211C9.50105 15.3787 9.31004 15.4005 9.13645 15.4837C8.96286 15.567 8.81449 15.708 8.7101 15.8889C8.60572 16.0698 8.55 16.2824 8.55 16.5C8.55 16.7917 8.65009 17.0715 8.82825 17.2778C9.00641 17.4841 9.24804 17.6 9.5 17.6ZM14.25 17.6C14.4379 17.6 14.6216 17.5355 14.7778 17.4146C14.934 17.2937 15.0558 17.122 15.1277 16.921C15.1996 16.72 15.2184 16.4988 15.1817 16.2854C15.1451 16.072 15.0546 15.876 14.9218 15.7222C14.7889 15.5683 14.6196 15.4636 14.4353 15.4211C14.2511 15.3787 14.06 15.4005 13.8865 15.4837C13.7129 15.567 13.5645 15.708 13.4601 15.8889C13.3557 16.0698 13.3 16.2824 13.3 16.5C13.3 16.7917 13.4001 17.0715 13.5782 17.2778C13.7564 17.4841 13.998 17.6 14.25 17.6ZM4.75 13.2C4.93789 13.2 5.12156 13.1355 5.27779 13.0146C5.43402 12.8937 5.55578 12.722 5.62769 12.521C5.69959 12.32 5.7184 12.0988 5.68175 11.8854C5.64509 11.672 5.55461 11.476 5.42175 11.3222C5.28889 11.1683 5.11962 11.0636 4.93534 11.0211C4.75105 10.9787 4.56004 11.0005 4.38645 11.0837C4.21286 11.167 4.06449 11.308 3.9601 11.4889C3.85572 11.6698 3.8 11.8824 3.8 12.1C3.8 12.3917 3.90009 12.6715 4.07825 12.8778C4.25641 13.0841 4.49804 13.2 4.75 13.2ZM16.15 2.2H15.2V1.1C15.2 0.808262 15.0999 0.528472 14.9218 0.322183C14.7436 0.115892 14.502 0 14.25 0C13.998 0 13.7564 0.115892 13.5782 0.322183C13.4001 0.528472 13.3 0.808262 13.3 1.1V2.2H5.7V1.1C5.7 0.808262 5.59991 0.528472 5.42175 0.322183C5.24359 0.115892 5.00196 0 4.75 0C4.49804 0 4.25641 0.115892 4.07825 0.322183C3.90009 0.528472 3.8 0.808262 3.8 1.1V2.2H2.85C2.09413 2.2 1.36922 2.54768 0.834746 3.16655C0.300267 3.78542 0 4.62479 0 5.5V18.7C0 19.5752 0.300267 20.4146 0.834746 21.0335C1.36922 21.6523 2.09413 22 2.85 22H16.15C16.9059 22 17.6308 21.6523 18.1653 21.0335C18.6997 20.4146 19 19.5752 19 18.7V5.5C19 4.62479 18.6997 3.78542 18.1653 3.16655C17.6308 2.54768 16.9059 2.2 16.15 2.2ZM17.1 18.7C17.1 18.9917 16.9999 19.2715 16.8218 19.4778C16.6436 19.6841 16.402 19.8 16.15 19.8H2.85C2.59804 19.8 2.35641 19.6841 2.17825 19.4778C2.00009 19.2715 1.9 18.9917 1.9 18.7V8.8H17.1V18.7ZM17.1 6.6H1.9V5.5C1.9 5.20826 2.00009 4.92847 2.17825 4.72218C2.35641 4.51589 2.59804 4.4 2.85 4.4H16.15C16.402 4.4 16.6436 4.51589 16.8218 4.72218C16.9999 4.92847 17.1 5.20826 17.1 5.5V6.6ZM4.75 17.6C4.93789 17.6 5.12156 17.5355 5.27779 17.4146C5.43402 17.2937 5.55578 17.122 5.62769 16.921C5.69959 16.72 5.7184 16.4988 5.68175 16.2854C5.64509 16.072 5.55461 15.876 5.42175 15.7222C5.28889 15.5683 5.11962 15.4636 4.93534 15.4211C4.75105 15.3787 4.56004 15.4005 4.38645 15.4837C4.21286 15.567 4.06449 15.708 3.9601 15.8889C3.85572 16.0698 3.8 16.2824 3.8 16.5C3.8 16.7917 3.90009 17.0715 4.07825 17.2778C4.25641 17.4841 4.49804 17.6 4.75 17.6Z" fill="#F2F2F2"/>
</svg>
