<svg width="25" height="17" viewBox="0 0 25 17" fill="none" xmlns="http://www.w3.org/2000/svg">
<path d="M12.5431 11.5726C13.5497 10.707 14.2715 9.54584 14.6107 8.24665C14.95 6.94746 14.8902 5.57304 14.4396 4.30974C13.9889 3.04644 13.1691 1.95536 12.0914 1.18443C11.0137 0.413496 9.73018 0 8.41483 0C7.09948 0 5.81594 0.413496 4.73822 1.18443C3.66051 1.95536 2.84076 3.04644 2.39011 4.30974C1.93945 5.57304 1.87969 6.94746 2.21893 8.24665C2.55818 9.54584 3.28 10.707 4.28656 11.5726C2.65413 12.3278 1.2494 13.5163 0.218411 15.0144C0.0354286 15.2808 -0.0367399 15.6105 0.0177345 15.9312C0.072209 16.2519 0.248879 16.5374 0.508993 16.7251C0.71065 16.8724 0.952507 16.9513 1.20038 16.9504C1.39318 16.951 1.58323 16.9038 1.75426 16.8128C1.92528 16.7218 2.07218 16.5898 2.18234 16.428C2.88487 15.4051 3.81798 14.5702 4.9028 13.9938C5.98761 13.4173 7.19224 13.1164 8.41483 13.1164C9.63743 13.1164 10.842 13.4173 11.9269 13.9938C13.0117 14.5702 13.9448 15.4051 14.6473 16.428C14.7344 16.5688 14.8486 16.6899 14.9829 16.7842C15.1172 16.8784 15.2688 16.9438 15.4285 16.9763C15.5883 17.0088 15.7529 17.0079 15.9122 16.9734C16.0716 16.9389 16.2224 16.8717 16.3556 16.7759C16.4888 16.68 16.6016 16.5575 16.687 16.4157C16.7725 16.2739 16.8289 16.1159 16.8528 15.9512C16.8767 15.7864 16.8676 15.6185 16.8261 15.4574C16.7846 15.2964 16.7115 15.1457 16.6113 15.0144C15.5803 13.5163 14.1755 12.3278 12.5431 11.5726ZM4.4068 6.56354C4.4068 5.75315 4.64187 4.96096 5.08228 4.28714C5.52268 3.61333 6.14865 3.08815 6.88102 2.77803C7.6134 2.46791 8.41928 2.38676 9.19676 2.54486C9.97424 2.70296 10.6884 3.0932 11.2489 3.66623C11.8095 4.23927 12.1912 4.96935 12.3458 5.76417C12.5005 6.55899 12.4211 7.38284 12.1178 8.13154C11.8144 8.88025 11.3007 9.52017 10.6416 9.9704C9.98246 10.4206 9.20754 10.6609 8.41483 10.6609C7.35184 10.6609 6.33238 10.2292 5.58073 9.46084C4.82907 8.69242 4.4068 7.65023 4.4068 6.56354ZM24.487 16.7251C24.2854 16.8724 24.0435 16.9513 23.7956 16.9504C23.6032 16.9493 23.4137 16.9013 23.2429 16.8105C23.0722 16.7197 22.925 16.5885 22.8137 16.428C22.1096 15.4069 21.1761 14.5734 20.0916 13.9977C19.0071 13.422 17.8032 13.1207 16.5812 13.1194C16.2623 13.1194 15.9565 12.9899 15.731 12.7593C15.5055 12.5288 15.3788 12.2162 15.3788 11.8902C15.3788 11.5641 15.5055 11.2515 15.731 11.021C15.9565 10.7904 16.2623 10.6609 16.5812 10.6609C17.6442 10.6609 18.6636 10.2292 19.4153 9.46084C20.1669 8.69242 20.5892 7.65023 20.5892 6.56354C20.5892 5.47684 20.1669 4.43465 19.4153 3.66623C18.6636 2.89782 17.6442 2.46613 16.5812 2.46613C16.2152 2.46543 15.851 2.51715 15.499 2.61979C15.3462 2.66639 15.1858 2.68145 15.0273 2.66408C14.8687 2.64672 14.7151 2.59728 14.5754 2.51864C14.4357 2.44 14.3127 2.33374 14.2135 2.20604C14.1144 2.07834 14.0411 1.93175 13.9979 1.77481C13.9547 1.61786 13.9424 1.45371 13.9619 1.29189C13.9814 1.13007 14.0321 0.973825 14.1112 0.83225C14.1903 0.690675 14.2961 0.566599 14.4226 0.467245C14.549 0.367891 14.6935 0.295246 14.8477 0.253537C15.4115 0.089445 15.995 0.00669673 16.5812 0.00769248C17.8974 0.00378483 19.1829 0.414668 20.2625 1.1844C21.3421 1.95413 22.1634 3.0453 22.6146 4.30936C23.0658 5.57341 23.125 6.94891 22.7841 8.24858C22.4432 9.54825 21.7188 10.7089 20.7095 11.5726C22.3419 12.3278 23.7466 13.5163 24.7776 15.0144C24.8695 15.1459 24.935 15.2946 24.9701 15.4521C25.0053 15.6097 25.0095 15.7727 24.9824 15.9319C24.9554 16.0911 24.8977 16.2432 24.8126 16.3793C24.7276 16.5155 24.6169 16.633 24.487 16.7251Z" fill="#EAEAFD"/>
</svg>
