<svg width="19" height="19" viewBox="0 0 19 19" fill="none" xmlns="http://www.w3.org/2000/svg">
<path d="M17.775 15.825C18.09 16.175 18.09 16.7 17.74 17.015L16.76 17.995C16.445 18.345 15.92 18.345 15.57 17.995L12.105 14.53C11.93 14.355 11.86 14.145 11.86 13.935V13.34C10.6 14.32 9.06 14.88 7.38 14.88C3.355 14.88 0.1 11.625 0.1 7.6C0.1 3.61 3.355 0.32 7.38 0.32C11.37 0.32 14.66 3.61 14.66 7.6C14.66 9.315 14.065 10.855 13.12 12.08H13.68C13.89 12.08 14.1 12.185 14.275 12.325L17.775 15.825ZM7.38 12.08C9.83 12.08 11.86 10.085 11.86 7.6C11.86 5.15 9.83 3.12 7.38 3.12C4.895 3.12 2.9 5.15 2.9 7.6C2.9 10.085 4.895 12.08 7.38 12.08Z" fill="#4A89D3"/>
</svg>
