<svg width="24" height="26" viewBox="0 0 24 26" fill="none" xmlns="http://www.w3.org/2000/svg">
<g clip-path="url(#clip0_723_8273)">
<path d="M10.325 4.66182C10.751 2.76556 13.249 2.76556 13.675 4.66182C13.7389 4.94669 13.8642 5.21124 14.0407 5.43393C14.2172 5.65662 14.4399 5.83117 14.6907 5.94336C14.9414 6.05555 15.2132 6.10221 15.4838 6.07955C15.7544 6.0569 16.0162 5.96555 16.248 5.81297C17.791 4.79788 19.558 6.70494 18.618 8.37227C18.4769 8.62243 18.3924 8.90501 18.3715 9.19705C18.3506 9.48909 18.3938 9.78234 18.4975 10.053C18.6013 10.3236 18.7627 10.564 18.9687 10.7545C19.1747 10.9451 19.4194 11.0805 19.683 11.1497C21.439 11.6097 21.439 14.3073 19.683 14.7673C19.4192 14.8363 19.1742 14.9716 18.968 15.1622C18.7618 15.3528 18.6001 15.5933 18.4963 15.8641C18.3924 16.1349 18.3491 16.4283 18.3701 16.7206C18.3911 17.0128 18.4757 17.2955 18.617 17.5458C19.557 19.2121 17.791 21.1202 16.247 20.1051C16.0153 19.9527 15.7537 19.8615 15.4832 19.8389C15.2128 19.8163 14.9412 19.863 14.6906 19.975C14.44 20.0871 14.2174 20.2614 14.0409 20.4839C13.8645 20.7063 13.7391 20.9706 13.675 21.2552C13.249 23.1514 10.751 23.1514 10.325 21.2552C10.2611 20.9703 10.1358 20.7058 9.95929 20.4831C9.7828 20.2604 9.56011 20.0858 9.30935 19.9736C9.05859 19.8614 8.78683 19.8148 8.51621 19.8374C8.24559 19.8601 7.98375 19.9514 7.752 20.104C6.209 21.1191 4.442 19.2121 5.382 17.5447C5.5231 17.2946 5.60755 17.012 5.62848 16.7199C5.64942 16.4279 5.60624 16.1347 5.50247 15.864C5.3987 15.5934 5.23726 15.353 5.03127 15.1625C4.82529 14.9719 4.58056 14.8365 4.317 14.7673C2.561 14.3073 2.561 11.6097 4.317 11.1497C4.5808 11.0807 4.82578 10.9454 5.032 10.7548C5.23822 10.5642 5.39985 10.3237 5.50375 10.0529C5.60764 9.78214 5.65085 9.48868 5.62987 9.19645C5.60889 8.90421 5.5243 8.62145 5.383 8.37119C4.443 6.70494 6.209 4.7968 7.753 5.81189C8.753 6.46845 10.049 5.88748 10.325 4.66182Z" stroke="#F2F2F2" stroke-width="1.5" stroke-linecap="round" stroke-linejoin="round"/>
<path d="M12 16.1981C13.6569 16.1981 15 14.7476 15 12.9584C15 11.1692 13.6569 9.71881 12 9.71881C10.3431 9.71881 9 11.1692 9 12.9584C9 14.7476 10.3431 16.1981 12 16.1981Z" stroke="#F2F2F2" stroke-width="1.5" stroke-linecap="round" stroke-linejoin="round"/>
</g>
<defs>
<clipPath id="clip0_723_8273">
<rect width="24" height="25.917" fill="white"/>
</clipPath>
</defs>
</svg>
