<svg width="63" height="60" viewBox="0 0 63 60" fill="none" xmlns="http://www.w3.org/2000/svg">
<g filter="url(#filter0_d_799_19912)">
<ellipse cx="29.5002" cy="27" rx="20.9211" ry="19.7368" fill="#0073C2"/>
<ellipse cx="38.5657" cy="19.7632" rx="4.88158" ry="4.60526" fill="#CFA96F"/>
<g clip-path="url(#clip0_799_19912)">
<path opacity="0.3" d="M33.5502 28L36.3102 23H24.1602L26.5302 28H33.5502Z" fill="white"/>
<path d="M33.55 30C34.3 30 34.96 29.59 35.3 28.97L38.88 22.48C39.25 21.82 38.77 21 38.01 21H23.21L22.27 19H19V21H21L24.6 28.59L23.25 31.03C22.52 32.37 23.48 34 25 34H37V32H25L26.1 30H33.55ZM24.16 23H36.31L33.55 28H26.53L24.16 23ZM25 35C23.9 35 23.01 35.9 23.01 37C23.01 38.1 23.9 39 25 39C26.1 39 27 38.1 27 37C27 35.9 26.1 35 25 35ZM35 35C33.9 35 33.01 35.9 33.01 37C33.01 38.1 33.9 39 35 39C36.1 39 37 38.1 37 37C37 35.9 36.1 35 35 35Z" fill="white"/>
</g>
</g>
<defs>
<filter id="filter0_d_799_19912" x="-5" y="-5" width="73" height="70" filterUnits="userSpaceOnUse" color-interpolation-filters="sRGB">
<feFlood flood-opacity="0" result="BackgroundImageFix"/>
<feColorMatrix in="SourceAlpha" type="matrix" values="0 0 0 0 0 0 0 0 0 0 0 0 0 0 0 0 0 0 127 0" result="hardAlpha"/>
<feOffset dx="2" dy="3"/>
<feGaussianBlur stdDeviation="5"/>
<feColorMatrix type="matrix" values="0 0 0 0 0 0 0 0 0 0 0 0 0 0 0 0 0 0 0.25 0"/>
<feBlend mode="normal" in2="BackgroundImageFix" result="effect1_dropShadow_799_19912"/>
<feBlend mode="normal" in="SourceGraphic" in2="effect1_dropShadow_799_19912" result="shape"/>
</filter>
<clipPath id="clip0_799_19912">
<rect width="24" height="24" fill="white" transform="translate(18 17)"/>
</clipPath>
</defs>
</svg>
