<svg width="19" height="17" viewBox="0 0 19 17" fill="none" xmlns="http://www.w3.org/2000/svg">
<path d="M17.875 9.25L15.625 6.96875C15.375 6.75 15 6.90625 15 7.25V8.78125H12V4.625C12 4.25 11.8125 3.84375 11.5312 3.5625L8.90625 0.96875C8.625 0.6875 8.25 0.5 7.875 0.5H1.46875C0.65625 0.53125 0 1.1875 0 2.03125V15.0312C0 15.8438 0.65625 16.5 1.46875 16.5H10.4688C11.3125 16.5 12 15.8438 12 15.0312V11.7812H10.5V15.0312H1.46875V2.03125H6.46875V5.28125C6.46875 5.6875 6.8125 6.03125 7.21875 6.03125H10.5V8.78125H5.375C5.15625 8.78125 5 8.9375 5 9.15625V9.90625C5 10.0938 5.15625 10.2812 5.375 10.2812H15V11.7812C15 12.125 15.375 12.2812 15.625 12.0625L17.875 9.8125C18.0312 9.65625 18.0312 9.40625 17.875 9.25ZM7.96875 4.53125V2.125L10.375 4.53125H7.96875Z" fill="white"/>
</svg>
