<svg width="63" height="60" viewBox="0 0 63 60" fill="none" xmlns="http://www.w3.org/2000/svg">
<g filter="url(#filter0_d_757_14733)">
<ellipse cx="29.5002" cy="27" rx="20.9211" ry="19.7368" fill="#0073C2"/>
<path d="M36.8954 20.023C35.1791 18.3933 32.9138 17.3795 30.4901 17.1565C28.0663 16.9335 25.6361 17.5152 23.6183 18.8014C21.6005 20.0877 20.1216 21.9977 19.4366 24.2023C18.7515 26.4069 18.9033 28.7679 19.8657 30.8783C19.966 31.0744 19.9989 31.2952 19.9598 31.5099L19.0393 35.6842C19.0038 35.8443 19.0111 36.0101 19.0604 36.1669C19.1097 36.3236 19.1995 36.4663 19.3217 36.5822C19.422 36.6761 19.5413 36.7498 19.6725 36.799C19.8038 36.8482 19.9442 36.8718 20.0854 36.8684H20.2946L24.7717 36.0197C24.9992 35.9939 25.23 36.0245 25.4412 36.1086C27.6781 37.0165 30.1808 37.1596 32.5177 36.5134C34.8546 35.8671 36.8792 34.472 38.2426 32.5684C39.606 30.6648 40.2226 28.3721 39.9863 26.0856C39.7499 23.799 38.6753 21.662 36.9477 20.0428L36.8954 20.023ZM25.3156 27.9868C25.1087 27.9868 24.9065 27.929 24.7345 27.8205C24.5624 27.7121 24.4284 27.558 24.3492 27.3777C24.27 27.1973 24.2493 26.9989 24.2897 26.8075C24.33 26.6161 24.4297 26.4402 24.576 26.3022C24.7222 26.1642 24.9086 26.0702 25.1116 26.0321C25.3145 25.994 25.5248 26.0136 25.7159 26.0883C25.9071 26.163 26.0704 26.2895 26.1854 26.4517C26.3003 26.614 26.3617 26.8048 26.3617 27C26.3617 27.2617 26.2515 27.5127 26.0553 27.6978C25.8591 27.8829 25.5931 27.9868 25.3156 27.9868ZM29.4998 27.9868C29.2929 27.9868 29.0907 27.929 28.9187 27.8205C28.7467 27.7121 28.6126 27.558 28.5334 27.3777C28.4542 27.1973 28.4335 26.9989 28.4739 26.8075C28.5142 26.6161 28.6139 26.4402 28.7602 26.3022C28.9065 26.1642 29.0928 26.0702 29.2958 26.0321C29.4987 25.994 29.709 26.0136 29.9001 26.0883C30.0913 26.163 30.2547 26.2895 30.3696 26.4517C30.4845 26.614 30.5459 26.8048 30.5459 27C30.5459 27.2617 30.4357 27.5127 30.2395 27.6978C30.0433 27.8829 29.7773 27.9868 29.4998 27.9868ZM33.684 27.9868C33.4772 27.9868 33.2749 27.929 33.1029 27.8205C32.9309 27.7121 32.7968 27.558 32.7176 27.3777C32.6384 27.1973 32.6177 26.9989 32.6581 26.8075C32.6985 26.6161 32.7981 26.4402 32.9444 26.3022C33.0907 26.1642 33.2771 26.0702 33.48 26.0321C33.6829 25.994 33.8932 26.0136 34.0844 26.0883C34.2755 26.163 34.4389 26.2895 34.5538 26.4517C34.6688 26.614 34.7301 26.8048 34.7301 27C34.7301 27.2617 34.6199 27.5127 34.4237 27.6978C34.2275 27.8829 33.9615 27.9868 33.684 27.9868Z" fill="white"/>
<ellipse cx="38.5657" cy="19.7632" rx="4.88158" ry="4.60526" fill="#6FCF97"/>
</g>
<defs>
<filter id="filter0_d_757_14733" x="-5" y="-5" width="73" height="70" filterUnits="userSpaceOnUse" color-interpolation-filters="sRGB">
<feFlood flood-opacity="0" result="BackgroundImageFix"/>
<feColorMatrix in="SourceAlpha" type="matrix" values="0 0 0 0 0 0 0 0 0 0 0 0 0 0 0 0 0 0 127 0" result="hardAlpha"/>
<feOffset dx="2" dy="3"/>
<feGaussianBlur stdDeviation="5"/>
<feColorMatrix type="matrix" values="0 0 0 0 0 0 0 0 0 0 0 0 0 0 0 0 0 0 0.25 0"/>
<feBlend mode="normal" in2="BackgroundImageFix" result="effect1_dropShadow_757_14733"/>
<feBlend mode="normal" in="SourceGraphic" in2="effect1_dropShadow_757_14733" result="shape"/>
</filter>
</defs>
</svg>
