<svg width="63" height="60" viewBox="0 0 63 60" fill="none" xmlns="http://www.w3.org/2000/svg">
<g filter="url(#filter0_d_757_14729)">
<ellipse cx="29.5002" cy="27" rx="20.1316" ry="18.9474" fill="white"/>
<path d="M29.5 7.5C18.0758 7.5 8.78125 16.2478 8.78125 27C8.78125 37.7522 18.0758 46.5 29.5 46.5C40.9242 46.5 50.2188 37.7522 50.2188 27C50.2188 16.2478 40.9242 7.5 29.5 7.5ZM29.5 39C27.4182 39 25.7627 38.1694 25.5405 36.4144C25.5346 36.3619 25.5406 36.3089 25.558 36.2588C25.5753 36.2086 25.6037 36.1625 25.6413 36.1234C25.6789 36.0843 25.7249 36.0531 25.7762 36.0318C25.8275 36.0105 25.8829 35.9997 25.939 36H33.0561C33.1127 35.9996 33.1687 36.0106 33.2204 36.0322C33.2722 36.0538 33.3184 36.0855 33.3561 36.1252C33.3938 36.165 33.4221 36.2118 33.4391 36.2626C33.456 36.3135 33.4613 36.3671 33.4545 36.42C33.2005 38.1422 31.5599 39 29.5 39ZM39.2617 34.5H19.7383C18.5589 34.5 17.9453 33.0938 18.6237 32.3438C20.2503 30.5306 21.3998 29.7684 21.3998 24.7687C21.3998 20.1872 23.9637 18.5616 26.0814 17.7684C26.2271 17.7113 26.3585 17.626 26.4671 17.5182C26.5757 17.4103 26.6591 17.2822 26.7119 17.1422C27.0795 15.9938 28.1194 15 29.5 15C30.8806 15 31.9185 15.9937 32.2891 17.1431C32.3422 17.2831 32.4258 17.4112 32.5346 17.519C32.6433 17.6268 32.7748 17.7121 32.9206 17.7694C35.0333 18.5606 37.6022 20.1891 37.6022 24.7697C37.6022 29.7694 38.7507 30.5316 40.3773 32.3447C41.0487 33.0938 40.4341 34.5 39.2617 34.5Z" fill="#0073C2"/>
<ellipse cx="38.2237" cy="20.0526" rx="4.69737" ry="4.42105" fill="#FF2C55"/>
</g>
<defs>
<filter id="filter0_d_757_14729" x="-4" y="-4" width="71" height="68" filterUnits="userSpaceOnUse" color-interpolation-filters="sRGB">
<feFlood flood-opacity="0" result="BackgroundImageFix"/>
<feColorMatrix in="SourceAlpha" type="matrix" values="0 0 0 0 0 0 0 0 0 0 0 0 0 0 0 0 0 0 127 0" result="hardAlpha"/>
<feOffset dx="2" dy="3"/>
<feGaussianBlur stdDeviation="5"/>
<feColorMatrix type="matrix" values="0 0 0 0 0 0 0 0 0 0 0 0 0 0 0 0 0 0 0.25 0"/>
<feBlend mode="normal" in2="BackgroundImageFix" result="effect1_dropShadow_757_14729"/>
<feBlend mode="normal" in="SourceGraphic" in2="effect1_dropShadow_757_14729" result="shape"/>
</filter>
</defs>
</svg>
